<?xml version="1.0" encoding="utf-8"?>
<!-- Generator: Adobe Illustrator 19.2.0, SVG Export Plug-In . SVG Version: 6.00 Build 0)  -->
<svg version="1.1" id="Layer_1" xmlns="http://www.w3.org/2000/svg" xmlns:xlink="http://www.w3.org/1999/xlink" x="0px" y="0px"
	 viewBox="0 0 336 235.2" style="enable-background:new 0 0 336 235.2;" xml:space="preserve">
<style type="text/css">
	.st0{fill:#FFD55C;}
	.st1{fill:#FFFFFF;}
	.st2{fill:#333333;}
	.st3{fill:#BCB8BE;}
	.st4{fill:#D2CFD6;}
	.st5{fill:#F69777;}
	.st6{fill:#586773;}
	.st7{fill:#B2E1EE;}
	.st8{fill:#CFDBE5;}
	.st9{opacity:0.5;}
	.st10{fill:none;}
</style>
<rect class="st0" width="336" height="235.2"/>
<rect x="68.1" y="63.6" class="st1" width="3.3" height="3.3"/>
<g>
	<polygon class="st2" points="83.8,30.9 90.6,68.5 94.6,67.8 87.9,30.1 	"/>
	<rect x="77.4" y="33.5" class="st3" width="6.7" height="35"/>
	<rect x="69.4" y="25" class="st4" width="5.3" height="43.6"/>
	<rect x="67.1" y="25" class="st5" width="5.3" height="43.6"/>
	<rect x="57.6" y="33.4" class="st4" width="9.8" height="35.1"/>
	<rect x="54.7" y="33.4" class="st6" width="9.8" height="35.1"/>
	<rect x="48.5" y="25" class="st7" width="6.2" height="43.6"/>
	<rect x="69.1" y="26.7" class="st1" width="1.3" height="15.5"/>
</g>
<g>
	<path class="st4" d="M304.5,18.5h-0.9h-267h-1.7h-4.7V75h4.7h1.7h267h0.9h5.6V18.5H304.5z M36.6,68.5V24.9h267v43.6H36.6z"/>
	<path class="st8" d="M301.7,18.5h-0.9h-267h-1.7h-4.7V75h4.7h1.7h267h0.9h5.6V18.5H301.7z M33.8,68.5V24.9h267v43.6H33.8z"/>
</g>
<g>
	<g>
		<rect x="273.5" y="28.6" class="st5" width="7.8" height="40"/>
		<rect x="275.3" y="36.2" class="st0" width="4.2" height="3"/>
		<rect x="275.3" y="60.9" class="st0" width="4.2" height="3"/>
	</g>
	<rect x="252.2" y="25.1" class="st4" width="5.3" height="43.4"/>
	<g>
		<rect x="249.7" y="25.1" class="st1" width="5.3" height="43.4"/>
		<rect x="251.5" y="36.7" class="st8" width="1.6" height="23.8"/>
	</g>
	<rect x="269.4" y="33.3" class="st4" width="4" height="35.2"/>
	<rect x="267.1" y="33.3" class="st7" width="4" height="35.2"/>
	<rect x="283.9" y="33.4" class="st4" width="9.3" height="35.1"/>
	<g>
		<rect x="281.3" y="33.4" class="st6" width="9.3" height="35.1"/>
		<rect x="284.4" y="43.1" class="st1" width="3.2" height="15.7"/>
		<rect x="283.5" y="37.7" class="st8" width="5" height="2.9"/>
		<rect x="283.5" y="61" class="st8" width="5" height="2.9"/>
	</g>
	<polygon class="st4" points="259.3,25.1 259.3,28.6 259.3,30.3 259.3,33.9 259.3,35.7 259.3,68.5 264.5,68.5 264.5,35.7 
		264.5,33.9 264.5,30.3 264.5,28.6 264.5,25.1 	"/>
	<g>
		<rect x="257.6" y="25.1" class="st5" width="5.3" height="43.4"/>
		<rect x="257.6" y="28.6" class="st6" width="5.3" height="1.8"/>
		<rect x="257.6" y="33.9" class="st6" width="5.3" height="1.8"/>
	</g>
</g>
<g>
	<rect x="111" y="33" class="st4" width="30" height="35.7"/>
	<g>
		<rect x="107.6" y="33" class="st1" width="30" height="35.7"/>
		<rect x="112.4" y="36.9" class="st7" width="20.4" height="27.9"/>
		<polygon class="st4" points="112.4,36.9 112.4,38.7 130.9,38.7 130.9,64.8 132.8,64.8 132.8,36.9 		"/>
	</g>
</g>
<g>
	<path class="st4" d="M91.6,213.6c0,0,0-4.7,7.1-7.9c4.8-2.1,10.3-2.2,15.2-0.3c3.8,1.5,7.6,4,7.6,8.3L91.6,213.6"/>
	<path class="st1" d="M87.6,213.6c0,0,0-4.7,7.1-7.9c4.8-2.1,10.3-2.2,15.2-0.3c3.8,1.5,7.6,4,7.6,8.3L87.6,213.6"/>
</g>
<g>
	<path class="st4" d="M309.1,84.9h-38.3c-0.3,0-0.5,0.2-0.5,0.5v41.8c0,0.3,0.2,0.5,0.5,0.5h38.3c0.3,0,0.5-0.2,0.5-0.5V85.4
		C309.6,85.1,309.3,84.9,309.1,84.9z"/>
	<g>
		<path class="st1" d="M305.3,127.2c0,0.3-0.2,0.5-0.5,0.5h-38.3c-0.3,0-0.5-0.2-0.5-0.5V85.4c0-0.3,0.2-0.5,0.5-0.5h38.3
			c0.3,0,0.5,0.2,0.5,0.5V127.2z"/>
		<path class="st2" d="M302.7,118.8c0,0.2-0.2,0.3-0.3,0.3H269c-0.2,0-0.3-0.2-0.3-0.3V88.4c0-0.2,0.2-0.3,0.3-0.3h33.3
			c0.2,0,0.3,0.2,0.3,0.3V118.8z"/>
		<g class="st9">
			<path class="st1" d="M302.7,118.8v0.2c0,0.2-0.2,0.3-0.3,0.3H269c-0.2,0-0.3-0.2-0.3-0.3v-0.2c0,0.2,0.2,0.3,0.3,0.3h33.3
				C302.5,119.2,302.7,119,302.7,118.8"/>
			<rect x="268.6" y="118.8" class="st10" width="34" height="0.5"/>
		</g>
	</g>
</g>
<g>
	<path class="st4" d="M45.4,170.9v6.7c-8,0.2-14.5,6-14.5,13.1c0,7.1,6.5,12.9,14.5,13.1v5.5c0,2.6,2.2,4.8,4.8,4.8h24.2
		c2.6,0,4.8-2.2,4.8-4.8v-38.3H45.4z M45.4,199.1c-5.5-0.2-9.9-3.9-9.9-8.5c0-4.6,4.4-8.3,9.9-8.5V199.1z"/>
	<g>
		<path class="st1" d="M42.6,170.9v38.3c0,2.6,2.2,4.8,4.8,4.8h24.2c2.6,0,4.8-2.2,4.8-4.8v-38.3H42.6z"/>
		<path class="st8" d="M42.6,199.1c-5.5-0.2-9.9-3.9-9.9-8.5c0-4.6,4.4-8.3,9.9-8.5v-4.5c-8,0.2-14.5,6-14.5,13.1
			c0,7.1,6.5,12.9,14.5,13.1V199.1z"/>
	</g>
</g>
<g>
	<polygon class="st4" points="221.9,162 221.9,172.8 224.1,172.8 224.1,213.9 307.6,213.9 307.6,172.8 309.8,172.8 309.8,162 	"/>
	<g>
		<rect x="219.8" y="172.8" class="st8" width="83.5" height="41.1"/>
		<rect x="224.4" y="141.2" class="st4" width="83.5" height="20.4"/>
		<rect x="219.8" y="141.2" class="st1" width="83.5" height="20.4"/>
		<rect x="242.8" y="184.1" class="st2" width="37.5" height="7.8"/>
		<rect x="242.8" y="147.6" class="st7" width="37.5" height="7.8"/>
		<rect x="242.8" y="201.8" class="st6" width="37.5" height="1.7"/>
		<rect x="242.8" y="197.7" class="st6" width="37.5" height="1.7"/>
		<rect x="217.6" y="162" class="st6" width="87.9" height="10.8"/>
	</g>
</g>
<g>
	<path class="st4" d="M223.2,38.6V28.1c0-1.8-1.4-3.2-3.2-3.2h-34.1v43.6h28.8h5.3h21.8V38.6H223.2z"/>
	<g>
		<g>
			<path class="st2" d="M216.8,24.9h-34.1v43.6h34.1c1.8,0,3.2-1.4,3.2-3.2V28.1C220,26.4,218.6,24.9,216.8,24.9z"/>
		</g>
		<rect x="189.1" y="33" class="st1" width="25.3" height="5.6"/>
	</g>
	<g>
		<rect x="211.6" y="38.6" class="st5" width="27" height="29.9"/>
		<g>
			<rect x="214.4" y="43.5" class="st3" width="20.8" height="2.8"/>
			<rect x="214.4" y="49.3" class="st3" width="20.8" height="2.8"/>
			<rect x="214.4" y="55" class="st3" width="20.8" height="2.8"/>
			<rect x="214.4" y="60.8" class="st3" width="20.8" height="2.8"/>
		</g>
	</g>
</g>
<rect x="83.7" y="111.8" class="st4" width="8" height="8"/>
<rect x="83.7" y="121.6" class="st4" width="8" height="8"/>
<rect x="83.7" y="131.4" class="st4" width="8" height="8"/>
<g>
	<path class="st5" d="M107.5,103.6H27.1V87.1c0-1,0.8-1.9,1.9-1.9h75.6c1.6,0,3,1.3,3,3V103.6"/>
	<rect x="27.1" y="103.6" class="st1" width="80.3" height="57.3"/>
	<path class="st1" d="M80.4,94.2H54.3c-0.7,0-1.2-0.5-1.2-1.2v0c0-0.7,0.5-1.2,1.2-1.2h26.1c0.7,0,1.2,0.5,1.2,1.2v0
		C81.6,93.6,81.1,94.2,80.4,94.2"/>
	<rect x="27.1" y="159" class="st3" width="80.5" height="1.8"/>
	<rect x="27.1" y="157.1" class="st4" width="80.5" height="1.8"/>
	<rect x="44.5" y="111.8" class="st0" width="8" height="8"/>
	<rect x="54.3" y="111.8" class="st4" width="8" height="8"/>
	<rect x="64.1" y="111.8" class="st4" width="8" height="8"/>
	<rect x="73.9" y="111.8" class="st4" width="8" height="8"/>
	<rect x="34.7" y="121.6" class="st4" width="8" height="8"/>
	<rect x="44.5" y="121.6" class="st4" width="8" height="8"/>
	<rect x="54.3" y="121.6" class="st4" width="8" height="8"/>
	<rect x="64.1" y="121.6" class="st4" width="8" height="8"/>
	<rect x="73.9" y="121.6" class="st4" width="8" height="8"/>
	<rect x="34.7" y="131.4" class="st4" width="8" height="8"/>
	<rect x="44.5" y="131.4" class="st4" width="8" height="8"/>
	<rect x="54.3" y="131.4" class="st4" width="8" height="8"/>
	<rect x="64.1" y="131.4" class="st0" width="8" height="8"/>
	<rect x="73.9" y="131.4" class="st4" width="8" height="8"/>
	<rect x="34.7" y="141.2" class="st4" width="8" height="8"/>
	<rect x="44.5" y="141.2" class="st4" width="8" height="8"/>
	<rect x="54.3" y="141.2" class="st4" width="8" height="8"/>
	<g>
		<rect x="42.8" y="125.4" transform="matrix(0.707 -0.7072 0.7072 0.707 -74.638 71.094)" class="st1" width="11.3" height="0.5"/>
	</g>
	<g>
		
			<rect x="48.2" y="120" transform="matrix(0.7071 -0.7071 0.7071 0.7071 -74.6303 71.0766)" class="st1" width="0.5" height="11.3"/>
	</g>
	<g>
		
			<rect x="72.3" y="125.4" transform="matrix(0.7071 -0.7071 0.7071 0.7071 -66.0057 91.8982)" class="st1" width="11.3" height="0.5"/>
	</g>
	<g>
		
			<rect x="77.7" y="120" transform="matrix(0.7071 -0.7071 0.7071 0.7071 -66.0057 91.8982)" class="st1" width="0.5" height="11.3"/>
	</g>
	<g>
		
			<rect x="33" y="135.2" transform="matrix(0.7071 -0.7071 0.7071 0.7071 -84.439 67.0134)" class="st1" width="11.3" height="0.5"/>
	</g>
	<g>
		
			<rect x="38.4" y="129.8" transform="matrix(0.7071 -0.7071 0.7071 0.7071 -84.439 67.0134)" class="st1" width="0.5" height="11.3"/>
	</g>
</g>
<g>
	<rect x="148.6" y="51.2" class="st4" width="17.2" height="17.2"/>
	<rect x="145.2" y="51.2" class="st1" width="17.2" height="17.2"/>
</g>
<rect y="213.9" class="st6" width="336" height="8.6"/>
<g>
	<path class="st4" d="M253.8,84.8h-160c-1.2,0-2.2,1-2.2,2.2v92.4h-0.2v14.2c0,1.1,1,2,2.2,2h55.8l-3.9,15.6h-16.2v2.7H218v-2.7
		h-16.2l-3.9-15.6h55.8c1.2,0,2.2-0.9,2.2-2v-14.2h0.1V87C256,85.8,255,84.8,253.8,84.8z"/>
	<g>
		<g>
			<path class="st2" d="M252.1,179.4V87c0-1.2-1-2.2-2.2-2.2h-160c-1.2,0-2.2,1-2.2,2.2v92.4H252.1z"/>
			<g>
				<rect x="125.4" y="211.2" class="st1" width="88.6" height="2.7"/>
				<path class="st1" d="M87.5,179.4v14.2c0,1.1,1,2,2.2,2h160.1c1.2,0,2.2-0.9,2.2-2v-14.2H87.5z"/>
				<polygon class="st4" points="197.8,211.2 193.9,195.6 145.5,195.6 141.5,211.2 				"/>
			</g>
			<rect x="94" y="94.8" class="st1" width="150.9" height="76.9"/>
			<rect x="94" y="90.6" class="st7" width="150.9" height="4.4"/>
		</g>
		<rect x="178.3" y="99.4" class="st7" width="58.8" height="51.5"/>
		<rect x="147.4" y="99.4" class="st6" width="73.1" height="64"/>
		<g>
			<rect x="102" y="99.7" class="st4" width="99.4" height="67.4"/>
			<rect x="102" y="99.5" class="st5" width="99.4" height="7.2"/>
			<ellipse class="st1" cx="108.2" cy="103.2" rx="1.8" ry="1.7"/>
			<ellipse class="st0" cx="113.5" cy="103.2" rx="1.8" ry="1.7"/>
			<ellipse class="st7" cx="118.8" cy="103.2" rx="1.8" ry="1.7"/>
			<rect x="122.8" y="101.8" class="st1" width="57.9" height="2.7"/>
			<rect x="106.4" y="110.8" class="st0" width="38.9" height="31.2"/>
			<g>
				<rect x="147.7" y="118.2" class="st1" width="49.3" height="2"/>
				<rect x="147.7" y="114.5" class="st1" width="49.3" height="2"/>
				<rect x="147.7" y="110.8" class="st1" width="49.3" height="2"/>
				<rect x="147.7" y="121.9" class="st1" width="49.3" height="2"/>
				<rect x="147.7" y="125.6" class="st1" width="49.3" height="2"/>
				<rect x="147.7" y="129.4" class="st1" width="49.3" height="2"/>
				<rect x="147.7" y="133.1" class="st1" width="49.3" height="2"/>
				<rect x="147.7" y="136.8" class="st1" width="49.3" height="2"/>
				<rect x="147.7" y="140.5" class="st1" width="49.3" height="2"/>
			</g>
			<g>
				<rect x="106.4" y="150.9" class="st5" width="18.4" height="12.5"/>
			</g>
			<g>
				<rect x="129.3" y="150.9" class="st5" width="18.5" height="12.5"/>
			</g>
			<g>
				<rect x="152.2" y="150.9" class="st5" width="18.4" height="12.5"/>
			</g>
			<g>
				<rect x="175" y="150.9" class="st5" width="18.5" height="12.5"/>
			</g>
			<g>
				<rect x="106.4" y="147.1" class="st6" width="8.4" height="1.8"/>
				<rect x="116.1" y="147.1" class="st6" width="8.8" height="1.8"/>
			</g>
			<g>
				<rect x="129.3" y="147.1" class="st6" width="8.4" height="1.8"/>
				<rect x="139" y="147.1" class="st6" width="8.8" height="1.8"/>
			</g>
			<g>
				<rect x="152.2" y="147.1" class="st6" width="8.4" height="1.8"/>
				<rect x="161.8" y="147.1" class="st6" width="8.8" height="1.8"/>
			</g>
			<g>
				<rect x="175" y="147.1" class="st6" width="8.4" height="1.8"/>
				<rect x="184.7" y="147.1" class="st6" width="8.8" height="1.8"/>
			</g>
		</g>
	</g>
</g>
</svg>
